<?xml version="1.0" encoding="UTF-8"?>
<!-- Mono: all fills white -->
<svg role="img" viewBox="0 0 24 24" xmlns="http://www.w3.org/2000/svg"><title>Microsoft Teams</title><path d="M16.365 8.145a3.388 3.388 0 0 0-1.654.446 3.388 3.388 0 0 0-3.388-3.388 3.388 3.388 0 0 0-3.388 3.388 3.388 3.388 0 0 0 3.388 3.388 3.388 3.388 0 0 0 2.555-1.189 3.388 3.388 0 0 0 2.485 1.189 3.388 3.388 0 0 0 3.388-3.388 3.388 3.388 0 0 0-3.388-3.388 3.388 3.388 0 0 0-1.996.67 4.136 4.136 0 0 1 1.396-.126 3.388 3.388 0 0 1 0 6.775 3.388 3.388 0 0 1-3.388-3.388 3.388 3.388 0 0 1 3.388-3.388 3.388 3.388 0 0 1 3.388 3.388 3.388 3.388 0 0 1-3.388 3.388Z" fill="#FFFFFF"/><path d="M10.14 7.38h-5.4c-.405 0-.735.33-.735.735v7.11c0 .405.33.735.735.735H10.14c.405 0 .735-.33.735-.735v-7.11c0-.405-.33-.735-.735-.735Zm-.735 5.88H8.13v1.47H6.66v-1.47H5.19V12.3h1.47v-1.47H8.13V12.3h1.275v.96Z" fill="#FFFFFF"/><path d="M16.365 8.145a3.388 3.388 0 1 0 0 6.775 3.388 3.388 0 0 0 0-6.775Zm-1.702 5.407h-.89V9.95h.89v3.602Zm3.252 0h-.89v-2.163h-1.098v-.752h2.986v.752h-1.098v2.163Z" fill="#FFFFFF"/></svg>